STARTFONT 2.1
FONT -umplus-gothic-medium-R-normal--12-120-75-75-C-120-iso10646-1
SIZE 13 75 75
FONTBOUNDINGBOX 12 13 0 -2
STARTPROPERTIES 23
FONTNAME_REGISTRY ""
FOUNDRY "umplus"
FAMILY_NAME "gothic"
WEIGHT_NAME "medium"
SLANT "R"
SETWIDTH_NAME "normal"
ADD_STYLE_NAME ""
PIXEL_SIZE 12
POINT_SIZE 120
RESOLUTION_X 75
RESOLUTION_Y 75
SPACING "C"
AVERAGE_WIDTH 120
CHARSET_REGISTRY "iso10646"
CHARSET_ENCODING "0"
COPYRIGHT "Copyright (C) 2002-2004 COZ"
WEIGHT 10
X_HEIGHT 11
QUAD_WIDTH 12
_XMBDFED_INFO "Edited with xmbdfed 4.5."
DEFAULT_CHAR 12288
FONT_DESCENT 2
FONT_ASCENT 11
ENDPROPERTIES
CHARS 250
STARTCHAR 0x2122
ENCODING 12289
SWIDTH 886 0
DWIDTH 12 0
BBX 12 13 0 -2
BITMAP
0000
0000
0000
0000
0000
0000
0000
0000
0000
0000
4000
2000
0000
ENDCHAR
STARTCHAR 0x2123
ENCODING 12290
SWIDTH 886 0
DWIDTH 12 0
BBX 12 13 0 -2
BITMAP
0000
0000
0000
0000
0000
0000
0000
0000
3000
4800
4800
3000
0000
ENDCHAR
STARTCHAR 0x2127
ENCODING 65306
SWIDTH 886 0
DWIDTH 12 0
BBX 12 13 0 -2
BITMAP
0000
0000
0000
0000
0C00
0C00
0000
0000
0C00
0C00
0000
0000
0000
ENDCHAR
STARTCHAR 0x2129
ENCODING 65311
SWIDTH 886 0
DWIDTH 12 0
BBX 12 13 0 -2
BITMAP
0000
0E00
1100
2080
0080
0100
0200
0400
0400
0000
0400
0000
0000
ENDCHAR
STARTCHAR 0x212A
ENCODING 65281
SWIDTH 886 0
DWIDTH 12 0
BBX 12 13 0 -2
BITMAP
0000
0400
0400
0400
0400
0400
0400
0400
0000
0000
0400
0000
0000
ENDCHAR
STARTCHAR 0x213C
ENCODING 12540
SWIDTH 886 0
DWIDTH 12 0
BBX 12 13 0 -2
BITMAP
0000
0000
0000
0000
0000
4000
3FC0
0000
0000
0000
0000
0000
0000
ENDCHAR
STARTCHAR 0x213F
ENCODING 65295
SWIDTH 886 0
DWIDTH 12 0
BBX 12 13 0 -2
BITMAP
0000
0020
0040
0080
0100
0200
0400
0800
1000
2000
4000
8000
0000
ENDCHAR
STARTCHAR 0x2144
ENCODING 8230
SWIDTH 886 0
DWIDTH 12 0
BBX 12 13 0 -2
BITMAP
0000
0000
0000
0000
0000
0000
6660
6660
0000
0000
0000
0000
0000
ENDCHAR
STARTCHAR 0x2156
ENCODING 12300
SWIDTH 886 0
DWIDTH 12 0
BBX 12 13 0 -2
BITMAP
03C0
0200
0200
0200
0200
0200
0200
0200
0000
0000
0000
0000
0000
ENDCHAR
STARTCHAR 0x2157
ENCODING 12301
SWIDTH 886 0
DWIDTH 12 0
BBX 12 13 0 -2
BITMAP
0000
0000
0000
0000
0000
0800
0800
0800
0800
0800
0800
0800
7800
ENDCHAR
STARTCHAR 0x215C
ENCODING 65291
SWIDTH 886 0
DWIDTH 12 0
BBX 12 13 0 -2
BITMAP
0000
0000
0400
0400
0400
0400
7FC0
0400
0400
0400
0400
0000
0000
ENDCHAR
STARTCHAR 0x215D
ENCODING 65293
SWIDTH 886 0
DWIDTH 12 0
BBX 12 13 0 -2
BITMAP
0000
0000
0000
0000
0000
0000
7FC0
0000
0000
0000
0000
0000
0000
ENDCHAR
STARTCHAR 0x222A
ENCODING 8594
SWIDTH 886 0
DWIDTH 12 0
BBX 12 13 0 -2
BITMAP
0000
0000
0200
0100
0080
0040
FFE0
0040
0080
0100
0200
0000
0000
ENDCHAR
STARTCHAR 0x2330
ENCODING 65296
SWIDTH 886 0
DWIDTH 12 0
BBX 12 13 0 -2
BITMAP
0000
0E00
1100
2080
2080
2080
2080
2080
2080
1100
0E00
0000
0000
ENDCHAR
STARTCHAR 0x2331
ENCODING 65297
SWIDTH 886 0
DWIDTH 12 0
BBX 12 13 0 -2
BITMAP
0000
0400
0C00
1400
2400
0400
0400
0400
0400
0400
0400
0000
0000
ENDCHAR
STARTCHAR 0x2332
ENCODING 65298
SWIDTH 886 0
DWIDTH 12 0
BBX 12 13 0 -2
BITMAP
0000
0E00
1100
2080
0080
0100
0200
0400
0800
1000
3F80
0000
0000
ENDCHAR
STARTCHAR 0x2333
ENCODING 65299
SWIDTH 886 0
DWIDTH 12 0
BBX 12 13 0 -2
BITMAP
0000
3F80
0100
0200
0400
0E00
0100
0080
2080
1100
0E00
0000
0000
ENDCHAR
STARTCHAR 0x2334
ENCODING 65300
SWIDTH 886 0
DWIDTH 12 0
BBX 12 13 0 -2
BITMAP
0000
0600
0A00
0A00
1200
1200
2200
2200
7F80
0200
0200
0000
0000
ENDCHAR
STARTCHAR 0x2335
ENCODING 65301
SWIDTH 886 0
DWIDTH 12 0
BBX 12 13 0 -2
BITMAP
0000
3F80
2000
2000
2E00
3100
0080
0080
0080
2100
1E00
0000
0000
ENDCHAR
STARTCHAR 0x2336
ENCODING 65302
SWIDTH 886 0
DWIDTH 12 0
BBX 12 13 0 -2
BITMAP
0000
0F00
1000
2000
2E00
3100
2080
2080
2080
1100
0E00
0000
0000
ENDCHAR
STARTCHAR 0x2337
ENCODING 65303
SWIDTH 886 0
DWIDTH 12 0
BBX 12 13 0 -2
BITMAP
0000
3F80
0080
0100
0100
0200
0200
0400
0400
0800
0800
0000
0000
ENDCHAR
STARTCHAR 0x2338
ENCODING 65304
SWIDTH 886 0
DWIDTH 12 0
BBX 12 13 0 -2
BITMAP
0000
0E00
1100
2080
1100
0E00
1100
2080
2080
1100
0E00
0000
0000
ENDCHAR
STARTCHAR 0x2339
ENCODING 65305
SWIDTH 886 0
DWIDTH 12 0
BBX 12 13 0 -2
BITMAP
0000
0E00
1100
2080
2080
2080
1180
0E80
0080
0100
1E00
0000
0000
ENDCHAR
STARTCHAR 0x2422
ENCODING 12354
SWIDTH 886 0
DWIDTH 12 0
BBX 12 13 0 -2
BITMAP
0000
0400
04C0
7F00
0800
0F80
1940
2920
4A20
4C20
3440
0180
0000
ENDCHAR
STARTCHAR 0x2424
ENCODING 12356
SWIDTH 886 0
DWIDTH 12 0
BBX 12 13 0 -2
BITMAP
0000
0000
0000
2000
2080
4040
4040
4020
4220
2400
1800
0000
0000
ENDCHAR
STARTCHAR 0x2426
ENCODING 12358
SWIDTH 886 0
DWIDTH 12 0
BBX 12 13 0 -2
BITMAP
0000
1C00
0300
0000
0E00
3100
0080
0080
0080
0100
0600
1800
0000
ENDCHAR
STARTCHAR 0x2428
ENCODING 12360
SWIDTH 886 0
DWIDTH 12 0
BBX 12 13 0 -2
BITMAP
0000
0C00
0300
0000
3F00
0100
0200
0400
0C00
1200
2200
41C0
0000
ENDCHAR
STARTCHAR 0x242A
ENCODING 12362
SWIDTH 886 0
DWIDTH 12 0
BBX 12 13 0 -2
BITMAP
0000
0800
08C0
7E20
0800
0800
0F80
1840
2820
4820
4840
3180
0000
ENDCHAR
STARTCHAR 0x242B
ENCODING 12363
SWIDTH 886 0
DWIDTH 12 0
BBX 12 13 0 -2
BITMAP
0000
1000
1080
1080
7C40
1240
1220
2220
2200
4200
4200
1C00
0000
ENDCHAR
STARTCHAR 0x242C
ENCODING 12364
SWIDTH 886 0
DWIDTH 12 0
BBX 12 13 0 -2
BITMAP
0000
1040
1120
1080
7C00
1240
1240
2220
2220
4200
4200
1C00
0000
ENDCHAR
STARTCHAR 0x242D
ENCODING 12365
SWIDTH 886 0
DWIDTH 12 0
BBX 12 13 0 -2
BITMAP
0000
0400
0580
7E00
03C0
7E00
0100
1E80
2180
2000
1000
0F00
0000
ENDCHAR
STARTCHAR 0x242F
ENCODING 12367
SWIDTH 886 0
DWIDTH 12 0
BBX 12 13 0 -2
BITMAP
0000
0000
0100
0200
0400
0800
1000
1000
0C00
0200
0100
0080
0000
ENDCHAR
STARTCHAR 0x2430
ENCODING 12368
SWIDTH 886 0
DWIDTH 12 0
BBX 12 13 0 -2
BITMAP
0000
0000
0200
0440
0920
1080
2000
2000
1800
0400
0200
0100
0000
ENDCHAR
STARTCHAR 0x2431
ENCODING 12369
SWIDTH 886 0
DWIDTH 12 0
BBX 12 13 0 -2
BITMAP
0000
0080
2080
2080
4FE0
4080
4080
4080
4080
4080
2100
2600
0000
ENDCHAR
STARTCHAR 0x2433
ENCODING 12371
SWIDTH 886 0
DWIDTH 12 0
BBX 12 13 0 -2
BITMAP
0000
0000
1F80
0000
0000
0000
0000
1000
2000
2040
1F80
0000
0000
ENDCHAR
STARTCHAR 0x2435
ENCODING 12373
SWIDTH 886 0
DWIDTH 12 0
BBX 12 13 0 -2
BITMAP
0000
0200
0200
02C0
7F00
0100
0100
1E80
2180
2000
1000
0F00
0000
ENDCHAR
STARTCHAR 0x2436
ENCODING 12374
SWIDTH 886 0
DWIDTH 12 0
BBX 12 13 0 -2
BITMAP
0000
0840
0920
0E80
F800
0400
0200
3D00
4300
4000
2000
1E00
0000
ENDCHAR
STARTCHAR 0x2437
ENCODING 12375
SWIDTH 886 0
DWIDTH 12 0
BBX 12 13 0 -2
BITMAP
0000
0000
0800
0800
0800
1000
1000
1000
1040
1040
0880
0700
0000
ENDCHAR
STARTCHAR 0x2438
ENCODING 12376
SWIDTH 886 0
DWIDTH 12 0
BBX 12 13 0 -2
BITMAP
0000
0000
1080
1240
1100
2000
2000
2000
2080
2080
1100
0E00
0000
ENDCHAR
STARTCHAR 0x2439
ENCODING 12377
SWIDTH 886 0
DWIDTH 12 0
BBX 12 13 0 -2
BITMAP
0000
0200
0200
FFE0
0200
0E00
1200
1200
0E00
0200
0400
1800
0000
ENDCHAR
STARTCHAR 0x243A
ENCODING 12378
SWIDTH 886 0
DWIDTH 12 0
BBX 12 13 0 -2
BITMAP
0000
0200
0200
FFE0
0200
0E40
1220
1280
0E40
0200
0400
1800
0000
ENDCHAR
STARTCHAR 0x243B
ENCODING 12379
SWIDTH 886 0
DWIDTH 12 0
BBX 12 13 0 -2
BITMAP
0000
0080
1080
1080
13E0
7C80
1080
1080
1380
1000
1000
0FC0
0000
ENDCHAR
STARTCHAR 0x243D
ENCODING 12381
SWIDTH 886 0
DWIDTH 12 0
BBX 12 13 0 -2
BITMAP
0000
0000
1F80
0100
0200
0400
7FE0
0400
0800
0800
0800
0780
0000
ENDCHAR
STARTCHAR 0x243F
ENCODING 12383
SWIDTH 886 0
DWIDTH 12 0
BBX 12 13 0 -2
BITMAP
0000
1000
1000
7F80
1000
13C0
1000
2200
2400
2400
43E0
4000
0000
ENDCHAR
STARTCHAR 0x2440
ENCODING 12384
SWIDTH 886 0
DWIDTH 12 0
BBX 12 13 0 -2
BITMAP
0040
1120
1080
7F00
1000
13C0
1000
2200
2400
2400
43E0
4000
0000
ENDCHAR
STARTCHAR 0x2441
ENCODING 12385
SWIDTH 886 0
DWIDTH 12 0
BBX 12 13 0 -2
BITMAP
0000
0400
0400
05E0
7E00
0800
1700
1880
0040
0040
0080
0F00
0000
ENDCHAR
STARTCHAR 0x2443
ENCODING 12387
SWIDTH 886 0
DWIDTH 12 0
BBX 12 13 0 -2
BITMAP
0000
0000
0000
0000
0000
0000
0E00
3100
0080
0080
0100
0E00
0000
ENDCHAR
STARTCHAR 0x2444
ENCODING 12388
SWIDTH 886 0
DWIDTH 12 0
BBX 12 13 0 -2
BITMAP
0000
0000
0000
0F00
7080
0040
0040
0040
0080
0300
1C00
0000
0000
ENDCHAR
STARTCHAR 0x2446
ENCODING 12390
SWIDTH 886 0
DWIDTH 12 0
BBX 12 13 0 -2
BITMAP
0000
0000
0000
0FC0
F200
0400
0800
0800
0800
0800
0400
0380
0000
ENDCHAR
STARTCHAR 0x2447
ENCODING 12391
SWIDTH 886 0
DWIDTH 12 0
BBX 12 13 0 -2
BITMAP
0000
0000
0000
0FC0
F200
0440
0920
0880
0800
0800
0400
0380
0000
ENDCHAR
STARTCHAR 0x2448
ENCODING 12392
SWIDTH 886 0
DWIDTH 12 0
BBX 12 13 0 -2
BITMAP
0000
0800
0800
0800
0400
0780
0C00
1000
2000
2000
1000
0F80
0000
ENDCHAR
STARTCHAR 0x2449
ENCODING 12393
SWIDTH 886 0
DWIDTH 12 0
BBX 12 13 0 -2
BITMAP
0080
1240
1100
1000
0800
0F00
1800
2000
4000
4000
2000
1F00
0000
ENDCHAR
STARTCHAR 0x244A
ENCODING 12394
SWIDTH 886 0
DWIDTH 12 0
BBX 12 13 0 -2
BITMAP
0000
0800
08C0
FE20
1000
1080
2080
2080
4780
48C0
08A0
0700
0000
ENDCHAR
STARTCHAR 0x244B
ENCODING 12395
SWIDTH 886 0
DWIDTH 12 0
BBX 12 13 0 -2
BITMAP
0000
0000
2000
23C0
4000
4000
4000
4200
4400
4400
23E0
2000
0000
ENDCHAR
STARTCHAR 0x244E
ENCODING 12398
SWIDTH 886 0
DWIDTH 12 0
BBX 12 13 0 -2
BITMAP
0000
0000
0000
0F80
1440
2420
4420
4820
4820
3040
0180
0000
0000
ENDCHAR
STARTCHAR 0x244F
ENCODING 12399
SWIDTH 886 0
DWIDTH 12 0
BBX 12 13 0 -2
BITMAP
0000
0080
2080
2080
4FE0
4080
4080
4080
4780
48C0
28A0
2700
0000
ENDCHAR
STARTCHAR 0x2450
ENCODING 12400
SWIDTH 886 0
DWIDTH 12 0
BBX 12 13 0 -2
BITMAP
0000
0140
4120
4180
9F40
8100
8100
8100
8F00
9180
5140
4E00
0000
ENDCHAR
STARTCHAR 0x2451
ENCODING 12401
SWIDTH 886 0
DWIDTH 12 0
BBX 12 13 0 -2
BITMAP
0000
00C0
4120
4120
9FC0
8100
8100
8100
8F00
9180
5140
4E00
0000
ENDCHAR
STARTCHAR 0x2452
ENCODING 12402
SWIDTH 886 0
DWIDTH 12 0
BBX 12 13 0 -2
BITMAP
0000
0000
7900
0900
1080
20C0
20A0
4080
4100
4100
2200
1C00
0000
ENDCHAR
STARTCHAR 0x2453
ENCODING 12403
SWIDTH 886 0
DWIDTH 12 0
BBX 12 13 0 -2
BITMAP
0000
0040
7920
0880
1000
2080
20C0
40A0
4100
4100
2200
1C00
0000
ENDCHAR
STARTCHAR 0x2456
ENCODING 12406
SWIDTH 886 0
DWIDTH 12 0
BBX 12 13 0 -2
BITMAP
0000
0040
1F20
0180
0240
0400
2400
2440
2240
4220
4220
0C00
0000
ENDCHAR
STARTCHAR 0x2458
ENCODING 12408
SWIDTH 886 0
DWIDTH 12 0
BBX 12 13 0 -2
BITMAP
0000
0000
0000
0000
0000
3800
4400
8200
0180
0060
0000
0000
0000
ENDCHAR
STARTCHAR 0x2459
ENCODING 12409
SWIDTH 886 0
DWIDTH 12 0
BBX 12 13 0 -2
BITMAP
0000
0000
0080
0240
0100
3800
4400
8200
0180
0060
0000
0000
0000
ENDCHAR
STARTCHAR 0x245C
ENCODING 12412
SWIDTH 886 0
DWIDTH 12 0
BBX 12 13 0 -2
BITMAP
0000
0040
5F20
4180
8100
9FC0
8100
8100
8F00
9180
5140
4E00
0000
ENDCHAR
STARTCHAR 0x245E
ENCODING 12414
SWIDTH 886 0
DWIDTH 12 0
BBX 12 13 0 -2
BITMAP
0000
0200
0200
7FC0
0200
3FC0
0200
0200
1E00
2380
2240
1C00
0000
ENDCHAR
STARTCHAR 0x245F
ENCODING 12415
SWIDTH 886 0
DWIDTH 12 0
BBX 12 13 0 -2
BITMAP
0000
0000
7C00
0480
0480
0480
3F80
48C0
88A0
9080
6100
0600
0000
ENDCHAR
STARTCHAR 0x2460
ENCODING 12416
SWIDTH 886 0
DWIDTH 12 0
BBX 12 13 0 -2
BITMAP
0000
0800
0800
7EC0
0820
0800
3800
4800
4840
3840
0840
0780
0000
ENDCHAR
STARTCHAR 0x2461
ENCODING 12417
SWIDTH 886 0
DWIDTH 12 0
BBX 12 13 0 -2
BITMAP
0000
0200
0200
2200
2F80
1240
3220
5420
4C20
4820
3040
0180
0000
ENDCHAR
STARTCHAR 0x2462
ENCODING 12418
SWIDTH 886 0
DWIDTH 12 0
BBX 12 13 0 -2
BITMAP
0000
0800
0800
7F80
0800
0800
7F80
1000
1040
1040
0880
0700
0000
ENDCHAR
STARTCHAR 0x2468
ENCODING 12424
SWIDTH 886 0
DWIDTH 12 0
BBX 12 13 0 -2
BITMAP
0000
0400
0400
0400
0780
0400
0400
0400
3C00
4700
4480
3800
0000
ENDCHAR
STARTCHAR 0x2469
ENCODING 12425
SWIDTH 886 0
DWIDTH 12 0
BBX 12 13 0 -2
BITMAP
0000
0C00
0300
0000
2000
2000
2700
3880
0040
0040
0180
0E00
0000
ENDCHAR
STARTCHAR 0x246A
ENCODING 12426
SWIDTH 886 0
DWIDTH 12 0
BBX 12 13 0 -2
BITMAP
0000
0000
1080
1080
1080
1080
1080
1480
0880
0080
0100
0600
0000
ENDCHAR
STARTCHAR 0x246B
ENCODING 12427
SWIDTH 886 0
DWIDTH 12 0
BBX 12 13 0 -2
BITMAP
0000
0000
1F80
0100
0200
0700
1880
2040
0C40
1240
1280
0F00
0000
ENDCHAR
STARTCHAR 0x246C
ENCODING 12428
SWIDTH 886 0
DWIDTH 12 0
BBX 12 13 0 -2
BITMAP
0000
1000
1000
1000
7380
1440
1840
1040
3080
5080
1080
1060
0000
ENDCHAR
STARTCHAR 0x246F
ENCODING 12431
SWIDTH 886 0
DWIDTH 12 0
BBX 12 13 0 -2
BITMAP
0000
1000
1000
1000
7380
1440
1820
1020
3020
5020
1040
1180
0000
ENDCHAR
STARTCHAR 0x2472
ENCODING 12434
SWIDTH 886 0
DWIDTH 12 0
BBX 12 13 0 -2
BITMAP
0000
0800
0800
7F80
1000
1C00
22C0
4700
4A00
1200
1000
0F80
0000
ENDCHAR
STARTCHAR 0x2473
ENCODING 12435
SWIDTH 886 0
DWIDTH 12 0
BBX 12 13 0 -2
BITMAP
0000
0000
0400
0400
0800
0800
1600
1900
2100
2120
4120
40C0
0000
ENDCHAR
STARTCHAR 0x2522
ENCODING 12450
SWIDTH 886 0
DWIDTH 12 0
BBX 12 13 0 -2
BITMAP
0000
0000
7FE0
0020
0040
0480
0400
0400
0400
0400
0800
3000
0000
ENDCHAR
STARTCHAR 0x252B
ENCODING 12459
SWIDTH 886 0
DWIDTH 12 0
BBX 12 13 0 -2
BITMAP
0000
0400
0400
0400
7FE0
0420
0420
0420
0820
0820
1020
61C0
0000
ENDCHAR
STARTCHAR 0x252F
ENCODING 12463
SWIDTH 886 0
DWIDTH 12 0
BBX 12 13 0 -2
BITMAP
0000
0400
0400
07C0
0840
1040
2040
0080
0080
0100
0600
3800
0000
ENDCHAR
STARTCHAR 0x2532
ENCODING 12466
SWIDTH 886 0
DWIDTH 12 0
BBX 12 13 0 -2
BITMAP
0040
2120
2080
2000
3FC0
4200
8200
0200
0400
0400
1800
6000
0000
ENDCHAR
STARTCHAR 0x2533
ENCODING 12467
SWIDTH 886 0
DWIDTH 12 0
BBX 12 13 0 -2
BITMAP
0000
0000
0000
7FC0
0040
0040
0040
0040
0040
0040
7FC0
0040
0000
ENDCHAR
STARTCHAR 0x2539
ENCODING 12473
SWIDTH 886 0
DWIDTH 12 0
BBX 12 13 0 -2
BITMAP
0000
0000
3F80
0080
0080
0080
0100
0100
0300
0480
1840
6020
0000
ENDCHAR
STARTCHAR 0x253F
ENCODING 12479
SWIDTH 886 0
DWIDTH 12 0
BBX 12 13 0 -2
BITMAP
0000
0400
0400
07C0
0840
1040
2640
0180
0080
0100
0600
3800
0000
ENDCHAR
STARTCHAR 0x2543
ENCODING 12483
SWIDTH 886 0
DWIDTH 12 0
BBX 12 13 0 -2
BITMAP
0000
0000
0000
0000
0000
2480
2480
2480
0100
0100
0600
1800
0000
ENDCHAR
STARTCHAR 0x2549
ENCODING 12489
SWIDTH 886 0
DWIDTH 12 0
BBX 12 13 0 -2
BITMAP
0000
2080
2240
2100
2000
3800
2600
2180
2000
2000
2000
2000
0000
ENDCHAR
STARTCHAR 0x254A
ENCODING 12490
SWIDTH 886 0
DWIDTH 12 0
BBX 12 13 0 -2
BITMAP
0000
0200
0200
0200
7FE0
0200
0200
0200
0400
0400
0800
3000
0000
ENDCHAR
STARTCHAR 0x255C
ENCODING 12508
SWIDTH 886 0
DWIDTH 12 0
BBX 12 13 0 -2
BITMAP
0040
0520
0480
0400
FFE0
0400
0400
2480
4440
8420
0400
0C00
0000
ENDCHAR
STARTCHAR 0x2560
ENCODING 12512
SWIDTH 886 0
DWIDTH 12 0
BBX 12 13 0 -2
BITMAP
0000
0800
0800
0800
0800
1000
1080
1080
2080
2740
F840
0040
0000
ENDCHAR
STARTCHAR 0x3146
ENCODING 24433
SWIDTH 886 0
DWIDTH 12 0
BBX 12 13 0 -2
BITMAP
0000
FC20
8440
FC80
8400
FC20
1040
FE80
4800
7820
9440
B280
0000
ENDCHAR
STARTCHAR 0x323B
ENCODING 38899
SWIDTH 886 0
DWIDTH 12 0
BBX 12 13 0 -2
BITMAP
0400
0400
7FC0
1100
1100
FFE0
0000
3F80
2080
3F80
2080
3F80
0000
ENDCHAR
STARTCHAR 0x324C
ENCODING 26524
SWIDTH 886 0
DWIDTH 12 0
BBX 12 13 0 -2
BITMAP
0000
7FC0
4440
7FC0
4440
4440
7FC0
0400
FFE0
0D00
3480
C460
0000
ENDCHAR
STARTCHAR 0x324D
ENCODING 26550
SWIDTH 886 0
DWIDTH 12 0
BBX 12 13 0 -2
BITMAP
2000
21E0
FD20
2520
2520
4520
99E0
0400
FFE0
0D00
3480
C460
0000
ENDCHAR
STARTCHAR 0x3273
ENCODING 22238
SWIDTH 886 0
DWIDTH 12 0
BBX 12 13 0 -2
BITMAP
0000
FFE0
8020
8020
9F20
9120
9120
9120
9F20
8020
8020
FFE0
0000
ENDCHAR
STARTCHAR 0x3326
ENCODING 30028
SWIDTH 886 0
DWIDTH 12 0
BBX 12 13 0 -2
BITMAP
0000
7FC0
4440
7FC0
4440
4440
7FC0
1100
3180
D140
1120
6100
0000
ENDCHAR
STARTCHAR 0x3524
ENCODING 27671
SWIDTH 886 0
DWIDTH 12 0
BBX 12 13 0 -2
BITMAP
2000
2000
3FE0
4000
5F80
0000
7FC0
0040
3240
0C40
1220
6120
0000
ENDCHAR
STARTCHAR 0x352D
ENCODING 35352
SWIDTH 886 0
DWIDTH 12 0
BBX 12 13 0 -2
BITMAP
0000
F7E0
0020
F020
0020
F7E0
0400
0400
F400
9420
9420
F7E0
0000
ENDCHAR
STARTCHAR 0x352F
ENCODING 36215
SWIDTH 886 0
DWIDTH 12 0
BBX 12 13 0 -2
BITMAP
2000
23E0
F820
2020
23E0
FA00
2200
3A20
A3E0
A000
F000
8FE0
0000
ENDCHAR
STARTCHAR 0x3544
ENCODING 35696
SWIDTH 886 0
DWIDTH 12 0
BBX 12 13 0 -2
BITMAP
0440
E480
1FE0
E100
0FE0
E100
1FE0
0900
FFE0
A920
BCC0
EB20
0000
ENDCHAR
STARTCHAR 0x3559
ENCODING 20241
SWIDTH 886 0
DWIDTH 12 0
BBX 12 13 0 -2
BITMAP
0100
2100
2100
5FE0
4100
C100
4300
4580
4940
5120
4100
4100
0000
ENDCHAR
STARTCHAR 0x362F
ENCODING 24375
SWIDTH 886 0
DWIDTH 12 0
BBX 12 13 0 -2
BITMAP
0200
E400
2820
2FE0
E100
8FE0
8920
E920
2FE0
2100
2120
CFE0
0000
ENDCHAR
STARTCHAR 0x3640
ENCODING 37857
SWIDTH 886 0
DWIDTH 12 0
BBX 12 13 0 -2
BITMAP
0100
3100
4FE0
8240
F240
27E0
FC40
27C0
B440
A7C0
2280
FCE0
0000
ENDCHAR
STARTCHAR 0x3649
ENCODING 23616
SWIDTH 886 0
DWIDTH 12 0
BBX 12 13 0 -2
BITMAP
0000
7FC0
4040
7FC0
4000
7FE0
4020
5F20
5120
5120
9F20
80C0
0000
ENDCHAR
STARTCHAR 0x3675
ENCODING 31354
SWIDTH 886 0
DWIDTH 12 0
BBX 12 13 0 -2
BITMAP
0400
0400
FFE0
8A20
8A20
1200
63C0
0000
3F80
0400
0400
FFE0
0000
ENDCHAR
STARTCHAR 0x373A
ENCODING 21009
SWIDTH 886 0
DWIDTH 12 0
BBX 12 13 0 -2
BITMAP
0000
FC20
4920
4920
4920
FD20
4920
4920
4920
4820
8820
8860
0000
ENDCHAR
STARTCHAR 0x3768
ENCODING 27770
SWIDTH 886 0
DWIDTH 12 0
BBX 12 13 0 -2
BITMAP
0100
0100
8FE0
4120
0120
8120
4FE0
0100
0100
2280
4440
9820
0000
ENDCHAR
STARTCHAR 0x376B
ENCODING 32080
SWIDTH 886 0
DWIDTH 12 0
BBX 12 13 0 -2
BITMAP
0080
2080
47E0
9080
F080
27E0
4000
F800
23E0
AA20
AA20
23E0
0000
ENDCHAR
STARTCHAR 0x382B
ENCODING 35211
SWIDTH 886 0
DWIDTH 12 0
BBX 12 13 0 -2
BITMAP
0000
3F80
2080
3F80
2080
3F80
2080
2080
3F80
1220
2220
C3E0
0000
ENDCHAR
STARTCHAR 0x3835
ENCODING 20803
SWIDTH 886 0
DWIDTH 12 0
BBX 12 13 0 -2
BITMAP
0000
7FC0
0000
0000
0000
FFE0
1200
1200
1200
1220
2220
C3E0
0000
ENDCHAR
STARTCHAR 0x387E
ENCODING 21521
SWIDTH 886 0
DWIDTH 12 0
BBX 12 13 0 -2
BITMAP
0200
0400
0800
FFE0
8020
8020
9F20
9120
9120
9F20
8020
80E0
0000
ENDCHAR
STARTCHAR 0x3954
ENCODING 34892
SWIDTH 886 0
DWIDTH 12 0
BBX 12 13 0 -2
BITMAP
0000
27C0
4000
8000
0000
2FE0
4080
C080
4080
4080
4080
4380
0000
ENDCHAR
STARTCHAR 0x3962
ENCODING 39640
SWIDTH 886 0
DWIDTH 12 0
BBX 12 13 0 -2
BITMAP
0400
0400
FFE0
1100
1F00
0000
FFE0
8020
9F20
9120
9F20
8060
0000
ENDCHAR
STARTCHAR 0x3967
ENCODING 21512
SWIDTH 886 0
DWIDTH 12 0
BBX 12 13 0 -2
BITMAP
0000
0E00
1100
2080
4040
BFA0
0000
0000
3F80
2080
2080
3F80
0000
ENDCHAR
STARTCHAR 0x3A23
ENCODING 20170
SWIDTH 886 0
DWIDTH 12 0
BBX 12 13 0 -2
BITMAP
0000
0F00
1080
2040
5FA0
8000
0000
3FC0
0040
0040
0180
0E00
0000
ENDCHAR
STARTCHAR 0x3A46
ENCODING 20877
SWIDTH 886 0
DWIDTH 12 0
BBX 12 13 0 -2
BITMAP
0000
FFE0
0400
7FC0
4440
7FC0
4440
4440
FFE0
4040
4040
40C0
0000
ENDCHAR
STARTCHAR 0x3A47
ENCODING 26368
SWIDTH 886 0
DWIDTH 12 0
BBX 12 13 0 -2
BITMAP
0000
3F80
2080
3F80
2080
FFE0
4800
7FE0
4A40
4A40
7980
CE60
0000
ENDCHAR
STARTCHAR 0x3B44
ENCODING 27531
SWIDTH 886 0
DWIDTH 12 0
BBX 12 13 0 -2
BITMAP
0100
F120
4FE0
4100
77E0
9100
9FE0
5120
2140
2180
4680
9860
0000
ENDCHAR
STARTCHAR 0x3B48
ENCODING 20351
SWIDTH 886 0
DWIDTH 12 0
BBX 12 13 0 -2
BITMAP
0100
2100
2FE0
4100
4FE0
C920
4920
4FE0
4100
4300
4480
5860
0000
ENDCHAR
STARTCHAR 0x3B57
ENCODING 24605
SWIDTH 886 0
DWIDTH 12 0
BBX 12 13 0 -2
BITMAP
0000
7FC0
4440
7FC0
4440
4440
7FC0
0000
0400
1240
5020
8F80
0000
ENDCHAR
STARTCHAR 0x3B5F
ENCODING 27490
SWIDTH 886 0
DWIDTH 12 0
BBX 12 13 0 -2
BITMAP
0400
0400
0400
0400
0400
47C0
4400
4400
4400
4400
4400
FFE0
0000
ENDCHAR
STARTCHAR 0x3B6E
ENCODING 35430
SWIDTH 886 0
DWIDTH 12 0
BBX 12 13 0 -2
BITMAP
0100
E120
0120
EFE0
0080
E080
0F80
0440
E440
A440
AF20
E020
0000
ENDCHAR
STARTCHAR 0x3C21
ENCODING 27425
SWIDTH 886 0
DWIDTH 12 0
BBX 12 13 0 -2
BITMAP
0400
0400
87E0
4520
0920
0940
0100
0100
4280
4280
8440
9820
0000
ENDCHAR
STARTCHAR 0x3C39
ENCODING 22519
SWIDTH 886 0
DWIDTH 12 0
BBX 12 13 0 -2
BITMAP
2100
2100
F900
27C0
F940
5540
5340
F940
22C0
FA40
2420
2420
0000
ENDCHAR
STARTCHAR 0x3C68
ENCODING 21462
SWIDTH 886 0
DWIDTH 12 0
BBX 12 13 0 -2
BITMAP
0000
FC00
4BE0
7820
4A20
4A20
7940
4940
4880
7980
CA40
0C20
0000
ENDCHAR
STARTCHAR 0x3D2A
ENCODING 32066
SWIDTH 886 0
DWIDTH 12 0
BBX 12 13 0 -2
BITMAP
0200
2200
43E0
8420
EA40
2180
4660
F100
20C0
AC00
A300
20E0
0000
ENDCHAR
STARTCHAR 0x3D50
ENCODING 20986
SWIDTH 886 0
DWIDTH 12 0
BBX 12 13 0 -2
BITMAP
0400
0400
4440
4440
4440
7FC0
0400
0400
8420
8420
8420
FFE0
0000
ENDCHAR
STARTCHAR 0x3D67
ENCODING 38918
SWIDTH 886 0
DWIDTH 12 0
BBX 12 13 0 -2
BITMAP
0000
47E0
5100
57E0
5420
57E0
5420
57E0
5420
57E0
8240
8C20
0000
ENDCHAR
STARTCHAR 0x3F37
ENCODING 26032
SWIDTH 886 0
DWIDTH 12 0
BBX 12 13 0 -2
BITMAP
2000
2060
FB80
4A00
4A00
FFE0
2240
FA40
3240
6A40
A440
2440
0000
ENDCHAR
STARTCHAR 0x4031
ENCODING 26143
SWIDTH 886 0
DWIDTH 12 0
BBX 12 13 0 -2
BITMAP
0000
3F80
2080
3F80
2080
3F80
2400
7FC0
8400
3F80
0400
FFE0
0000
ENDCHAR
STARTCHAR 0x4045
ENCODING 38745
SWIDTH 886 0
DWIDTH 12 0
BBX 12 13 0 -2
BITMAP
2000
23C0
FC40
2080
FBE0
20A0
FFE0
88A0
FBE0
8880
F880
8980
0000
ENDCHAR
STARTCHAR 0x4068
ENCODING 20808
SWIDTH 886 0
DWIDTH 12 0
BBX 12 13 0 -2
BITMAP
0400
2400
2400
3FC0
4400
8400
FFE0
0900
0900
0900
1120
E1E0
0000
ENDCHAR
STARTCHAR 0x406F
ENCODING 25126
SWIDTH 886 0
DWIDTH 12 0
BBX 12 13 0 -2
BITMAP
2100
9520
4920
F900
AFE0
F900
A940
A940
F880
2080
F940
2620
0000
ENDCHAR
STARTCHAR 0x412A
ENCODING 36984
SWIDTH 886 0
DWIDTH 12 0
BBX 12 13 0 -2
BITMAP
0000
1EE0
4220
2EE0
0880
0FE0
E280
2FE0
2280
2C60
5000
8FE0
0000
ENDCHAR
STARTCHAR 0x4130
ENCODING 21069
SWIDTH 886 0
DWIDTH 12 0
BBX 12 13 0 -2
BITMAP
1080
1100
FFE0
0000
7D20
4520
7D20
4520
7D20
4520
4420
4C60
0000
ENDCHAR
STARTCHAR 0x4148
ENCODING 32068
SWIDTH 886 0
DWIDTH 12 0
BBX 12 13 0 -2
BITMAP
0000
23E0
4220
9220
F3E0
2220
4A20
FBE0
2220
AA20
AA20
27E0
0000
ENDCHAR
STARTCHAR 0x422D
ENCODING 36275
SWIDTH 886 0
DWIDTH 12 0
BBX 12 13 0 -2
BITMAP
0000
3FC0
2040
2040
3FC0
0400
0400
27C0
2400
2400
3C00
C3E0
0000
ENDCHAR
STARTCHAR 0x4254
ENCODING 24453
SWIDTH 886 0
DWIDTH 12 0
BBX 12 13 0 -2
BITMAP
0100
2100
47E0
8100
0100
2FE0
4040
CFE0
4040
4440
4240
40C0
0000
ENDCHAR
STARTCHAR 0x4267
ENCODING 22823
SWIDTH 886 0
DWIDTH 12 0
BBX 12 13 0 -2
BITMAP
0400
0400
0400
FFE0
0400
0400
0400
0A00
0A00
1100
2080
C060
0000
ENDCHAR
STARTCHAR 0x4366
ENCODING 20013
SWIDTH 886 0
DWIDTH 12 0
BBX 12 13 0 -2
BITMAP
0400
0400
0400
FFE0
8420
8420
8420
FFE0
0400
0400
0400
0400
0000
ENDCHAR
STARTCHAR 0x4429
ENCODING 25361
SWIDTH 886 0
DWIDTH 12 0
BBX 12 13 0 -2
BITMAP
0100
4500
5520
ED40
4500
4500
4D80
5540
E520
4500
4920
F0E0
0000
ENDCHAR
STARTCHAR 0x446E
ENCODING 24311
SWIDTH 886 0
DWIDTH 12 0
BBX 12 13 0 -2
BITMAP
0000
00C0
E700
2100
4100
8FE0
E100
2100
A100
4FE0
7000
8FE0
0000
ENDCHAR
STARTCHAR 0x4540
ENCODING 28857
SWIDTH 886 0
DWIDTH 12 0
BBX 12 13 0 -2
BITMAP
0400
0400
07C0
0400
0400
3F80
2080
2080
3F80
0000
5240
8920
0000
ENDCHAR
STARTCHAR 0x4630
ENCODING 21205
SWIDTH 886 0
DWIDTH 12 0
BBX 12 13 0 -2
BITMAP
0100
F900
2100
FFE0
A920
F920
A920
F920
2220
FA20
2040
F980
0000
ENDCHAR
STARTCHAR 0x4631
ENCODING 21516
SWIDTH 886 0
DWIDTH 12 0
BBX 12 13 0 -2
BITMAP
0000
FFE0
8020
8020
BFA0
8020
8020
9F20
9120
9120
9F20
8060
0000
ENDCHAR
STARTCHAR 0x4856
ENCODING 30058
SWIDTH 886 0
DWIDTH 12 0
BBX 12 13 0 -2
BITMAP
0000
7FC0
2480
1500
FFE0
1480
2440
FFA0
2480
3F80
2480
3F80
0000
ENDCHAR
STARTCHAR 0x4954
ENCODING 19981
SWIDTH 886 0
DWIDTH 12 0
BBX 12 13 0 -2
BITMAP
0000
FFE0
0100
0200
0400
0D00
3480
C440
0420
0400
0400
0400
0000
ENDCHAR
STARTCHAR 0x497C
ENCODING 24489
SWIDTH 886 0
DWIDTH 12 0
BBX 12 13 0 -2
BITMAP
0400
2400
4FE0
9840
0FC0
2840
4FC0
C400
4FE0
5440
4380
5C60
0000
ENDCHAR
STARTCHAR 0x4A4C
ENCODING 21029
SWIDTH 886 0
DWIDTH 12 0
BBX 12 13 0 -2
BITMAP
0000
F820
8920
8920
F920
4120
7920
4920
8920
8820
0820
7060
0000
ENDCHAR
STARTCHAR 0x4B21
ENCODING 27861
SWIDTH 886 0
DWIDTH 12 0
BBX 12 13 0 -2
BITMAP
0100
0100
8FE0
4100
0100
8100
4FE0
0200
0440
2440
49A0
8E20
0000
ENDCHAR
STARTCHAR 0x4B67
ENCODING 26522
SWIDTH 886 0
DWIDTH 12 0
BBX 12 13 0 -2
BITMAP
2200
2200
23E0
FA40
2440
2440
6140
7140
A880
A080
2340
2C20
0000
ENDCHAR
STARTCHAR 0x4C3D
ENCODING 20901
SWIDTH 886 0
DWIDTH 12 0
BBX 12 13 0 -2
BITMAP
0000
FFE0
8020
BFA0
2080
3F80
2080
3F80
0400
FFE0
2080
C060
0000
ENDCHAR
STARTCHAR 0x4D37
ENCODING 36938
SWIDTH 886 0
DWIDTH 12 0
BBX 12 13 0 -2
BITMAP
0900
0900
9FE0
4900
0FE0
0A20
EA40
33E0
2240
2CC0
5000
8FE0
0000
ENDCHAR
STARTCHAR 0x4D6E
ENCODING 33853
SWIDTH 886 0
DWIDTH 12 0
BBX 12 13 0 -2
BITMAP
1100
1100
FFE0
1100
47C0
2840
8480
4780
0860
1FC0
4840
8FC0
0000
ENDCHAR
STARTCHAR 0x4F3F
ENCODING 37682
SWIDTH 886 0
DWIDTH 12 0
BBX 12 13 0 -2
BITMAP
0000
37C0
4040
87C0
F040
2FE0
F120
2D40
A580
A940
3120
E700
0000
ENDCHAR
STARTCHAR 0x000A
ENCODING 10
SWIDTH 443 0
DWIDTH 6 0
BBX 6 13 0 -2
BITMAP
00
88
88
88
90
E0
00
F8
20
20
20
20
00
ENDCHAR
STARTCHAR 0x0020
ENCODING 32
SWIDTH 443 0
DWIDTH 6 0
BBX 6 13 0 -2
BITMAP
00
00
00
00
00
00
00
00
00
00
00
00
00
ENDCHAR
STARTCHAR 0x0021
ENCODING 33
SWIDTH 443 0
DWIDTH 6 0
BBX 6 13 0 -2
BITMAP
00
00
20
20
20
20
20
20
00
00
20
00
00
ENDCHAR
STARTCHAR 0x0022
ENCODING 34
SWIDTH 443 0
DWIDTH 6 0
BBX 6 13 0 -2
BITMAP
00
50
50
50
50
00
00
00
00
00
00
00
00
ENDCHAR
STARTCHAR 0x0023
ENCODING 35
SWIDTH 443 0
DWIDTH 6 0
BBX 6 13 0 -2
BITMAP
00
00
50
50
F8
50
50
50
F8
50
50
00
00
ENDCHAR
STARTCHAR 0x0024
ENCODING 36
SWIDTH 443 0
DWIDTH 6 0
BBX 6 13 0 -2
BITMAP
00
00
20
78
A0
A0
70
28
28
F0
20
00
00
ENDCHAR
STARTCHAR 0x0025
ENCODING 37
SWIDTH 443 0
DWIDTH 6 0
BBX 6 13 0 -2
BITMAP
00
00
40
A0
48
10
20
40
90
28
10
00
00
ENDCHAR
STARTCHAR 0x0026
ENCODING 38
SWIDTH 443 0
DWIDTH 6 0
BBX 6 13 0 -2
BITMAP
00
00
60
90
90
60
48
A8
90
90
68
00
00
ENDCHAR
STARTCHAR 0x0027
ENCODING 39
SWIDTH 443 0
DWIDTH 6 0
BBX 6 13 0 -2
BITMAP
00
20
20
20
20
00
00
00
00
00
00
00
00
ENDCHAR
STARTCHAR 0x0028
ENCODING 40
SWIDTH 443 0
DWIDTH 6 0
BBX 6 13 0 -2
BITMAP
00
10
20
20
40
40
40
40
40
20
20
10
00
ENDCHAR
STARTCHAR 0x0029
ENCODING 41
SWIDTH 443 0
DWIDTH 6 0
BBX 6 13 0 -2
BITMAP
00
40
20
20
10
10
10
10
10
20
20
40
00
ENDCHAR
STARTCHAR 0x002A
ENCODING 42
SWIDTH 443 0
DWIDTH 6 0
BBX 6 13 0 -2
BITMAP
00
00
00
20
A8
70
20
70
A8
20
00
00
00
ENDCHAR
STARTCHAR 0x002B
ENCODING 43
SWIDTH 443 0
DWIDTH 6 0
BBX 6 13 0 -2
BITMAP
00
00
00
00
20
20
F8
20
20
00
00
00
00
ENDCHAR
STARTCHAR 0x002C
ENCODING 44
SWIDTH 443 0
DWIDTH 6 0
BBX 6 13 0 -2
BITMAP
00
00
00
00
00
00
00
00
20
70
20
40
00
ENDCHAR
STARTCHAR 0x002D
ENCODING 45
SWIDTH 443 0
DWIDTH 6 0
BBX 6 13 0 -2
BITMAP
00
00
00
00
00
00
F8
00
00
00
00
00
00
ENDCHAR
STARTCHAR 0x002E
ENCODING 46
SWIDTH 443 0
DWIDTH 6 0
BBX 6 13 0 -2
BITMAP
00
00
00
00
00
00
00
00
20
70
20
00
00
ENDCHAR
STARTCHAR 0x002F
ENCODING 47
SWIDTH 443 0
DWIDTH 6 0
BBX 6 13 0 -2
BITMAP
00
00
08
08
10
10
20
20
40
40
80
80
00
ENDCHAR
STARTCHAR 0x0030
ENCODING 48
SWIDTH 443 0
DWIDTH 6 0
BBX 6 13 0 -2
BITMAP
00
00
70
88
88
98
A8
C8
88
88
70
00
00
ENDCHAR
STARTCHAR 0x0031
ENCODING 49
SWIDTH 443 0
DWIDTH 6 0
BBX 6 13 0 -2
BITMAP
00
00
20
60
A0
20
20
20
20
20
20
00
00
ENDCHAR
STARTCHAR 0x0032
ENCODING 50
SWIDTH 443 0
DWIDTH 6 0
BBX 6 13 0 -2
BITMAP
00
00
70
88
88
08
10
20
40
80
F8
00
00
ENDCHAR
STARTCHAR 0x0033
ENCODING 51
SWIDTH 443 0
DWIDTH 6 0
BBX 6 13 0 -2
BITMAP
00
00
F8
08
10
20
70
08
08
88
70
00
00
ENDCHAR
STARTCHAR 0x0034
ENCODING 52
SWIDTH 443 0
DWIDTH 6 0
BBX 6 13 0 -2
BITMAP
00
00
30
30
50
50
90
90
F8
10
10
00
00
ENDCHAR
STARTCHAR 0x0035
ENCODING 53
SWIDTH 443 0
DWIDTH 6 0
BBX 6 13 0 -2
BITMAP
00
00
F8
80
80
F0
08
08
88
88
70
00
00
ENDCHAR
STARTCHAR 0x0036
ENCODING 54
SWIDTH 443 0
DWIDTH 6 0
BBX 6 13 0 -2
BITMAP
00
00
30
40
80
F0
88
88
88
88
70
00
00
ENDCHAR
STARTCHAR 0x0037
ENCODING 55
SWIDTH 443 0
DWIDTH 6 0
BBX 6 13 0 -2
BITMAP
00
00
F8
08
10
10
20
20
40
40
40
00
00
ENDCHAR
STARTCHAR 0x0038
ENCODING 56
SWIDTH 443 0
DWIDTH 6 0
BBX 6 13 0 -2
BITMAP
00
00
70
88
88
50
20
50
88
88
70
00
00
ENDCHAR
STARTCHAR 0x0039
ENCODING 57
SWIDTH 443 0
DWIDTH 6 0
BBX 6 13 0 -2
BITMAP
00
00
70
88
88
88
88
78
08
10
60
00
00
ENDCHAR
STARTCHAR 0x003A
ENCODING 58
SWIDTH 443 0
DWIDTH 6 0
BBX 6 13 0 -2
BITMAP
00
00
00
00
20
70
20
00
20
70
20
00
00
ENDCHAR
STARTCHAR 0x003B
ENCODING 59
SWIDTH 443 0
DWIDTH 6 0
BBX 6 13 0 -2
BITMAP
00
00
00
00
20
70
20
00
20
70
20
40
00
ENDCHAR
STARTCHAR 0x003C
ENCODING 60
SWIDTH 443 0
DWIDTH 6 0
BBX 6 13 0 -2
BITMAP
00
00
08
10
20
40
80
40
20
10
08
00
00
ENDCHAR
STARTCHAR 0x003D
ENCODING 61
SWIDTH 443 0
DWIDTH 6 0
BBX 6 13 0 -2
BITMAP
00
00
00
00
00
F8
00
F8
00
00
00
00
00
ENDCHAR
STARTCHAR 0x003E
ENCODING 62
SWIDTH 443 0
DWIDTH 6 0
BBX 6 13 0 -2
BITMAP
00
00
80
40
20
10
08
10
20
40
80
00
00
ENDCHAR
STARTCHAR 0x003F
ENCODING 63
SWIDTH 443 0
DWIDTH 6 0
BBX 6 13 0 -2
BITMAP
00
00
70
88
88
08
10
20
20
00
20
00
00
ENDCHAR
STARTCHAR 0x0040
ENCODING 64
SWIDTH 443 0
DWIDTH 6 0
BBX 6 13 0 -2
BITMAP
00
00
70
88
B8
A8
A8
A8
B8
80
70
00
00
ENDCHAR
STARTCHAR 0x0041
ENCODING 65
SWIDTH 443 0
DWIDTH 6 0
BBX 6 13 0 -2
BITMAP
00
00
20
20
50
50
50
F8
88
88
88
00
00
ENDCHAR
STARTCHAR 0x0042
ENCODING 66
SWIDTH 443 0
DWIDTH 6 0
BBX 6 13 0 -2
BITMAP
00
00
F0
88
88
88
F0
88
88
88
F0
00
00
ENDCHAR
STARTCHAR 0x0043
ENCODING 67
SWIDTH 443 0
DWIDTH 6 0
BBX 6 13 0 -2
BITMAP
00
00
70
88
80
80
80
80
80
88
70
00
00
ENDCHAR
STARTCHAR 0x0044
ENCODING 68
SWIDTH 443 0
DWIDTH 6 0
BBX 6 13 0 -2
BITMAP
00
00
E0
90
88
88
88
88
88
90
E0
00
00
ENDCHAR
STARTCHAR 0x0045
ENCODING 69
SWIDTH 443 0
DWIDTH 6 0
BBX 6 13 0 -2
BITMAP
00
00
F8
80
80
80
F0
80
80
80
F8
00
00
ENDCHAR
STARTCHAR 0x0046
ENCODING 70
SWIDTH 443 0
DWIDTH 6 0
BBX 6 13 0 -2
BITMAP
00
00
F8
80
80
80
F0
80
80
80
80
00
00
ENDCHAR
STARTCHAR 0x0047
ENCODING 71
SWIDTH 443 0
DWIDTH 6 0
BBX 6 13 0 -2
BITMAP
00
00
70
88
80
80
B8
88
88
88
78
00
00
ENDCHAR
STARTCHAR 0x0048
ENCODING 72
SWIDTH 443 0
DWIDTH 6 0
BBX 6 13 0 -2
BITMAP
00
00
88
88
88
88
F8
88
88
88
88
00
00
ENDCHAR
STARTCHAR 0x0049
ENCODING 73
SWIDTH 443 0
DWIDTH 6 0
BBX 6 13 0 -2
BITMAP
00
00
70
20
20
20
20
20
20
20
70
00
00
ENDCHAR
STARTCHAR 0x004A
ENCODING 74
SWIDTH 443 0
DWIDTH 6 0
BBX 6 13 0 -2
BITMAP
00
00
08
08
08
08
08
88
88
88
70
00
00
ENDCHAR
STARTCHAR 0x004B
ENCODING 75
SWIDTH 443 0
DWIDTH 6 0
BBX 6 13 0 -2
BITMAP
00
00
88
90
A0
C0
C0
A0
90
88
88
00
00
ENDCHAR
STARTCHAR 0x004C
ENCODING 76
SWIDTH 443 0
DWIDTH 6 0
BBX 6 13 0 -2
BITMAP
00
00
80
80
80
80
80
80
80
80
F8
00
00
ENDCHAR
STARTCHAR 0x004D
ENCODING 77
SWIDTH 443 0
DWIDTH 6 0
BBX 6 13 0 -2
BITMAP
00
00
88
D8
A8
88
88
88
88
88
88
00
00
ENDCHAR
STARTCHAR 0x004E
ENCODING 78
SWIDTH 443 0
DWIDTH 6 0
BBX 6 13 0 -2
BITMAP
00
00
88
C8
A8
98
88
88
88
88
88
00
00
ENDCHAR
STARTCHAR 0x004F
ENCODING 79
SWIDTH 443 0
DWIDTH 6 0
BBX 6 13 0 -2
BITMAP
00
00
70
88
88
88
88
88
88
88
70
00
00
ENDCHAR
STARTCHAR 0x0050
ENCODING 80
SWIDTH 443 0
DWIDTH 6 0
BBX 6 13 0 -2
BITMAP
00
00
F0
88
88
88
F0
80
80
80
80
00
00
ENDCHAR
STARTCHAR 0x0051
ENCODING 81
SWIDTH 443 0
DWIDTH 6 0
BBX 6 13 0 -2
BITMAP
00
00
70
88
88
88
88
88
88
88
70
10
0C
ENDCHAR
STARTCHAR 0x0052
ENCODING 82
SWIDTH 443 0
DWIDTH 6 0
BBX 6 13 0 -2
BITMAP
00
00
F0
88
88
88
F0
A0
90
88
88
00
00
ENDCHAR
STARTCHAR 0x0053
ENCODING 83
SWIDTH 443 0
DWIDTH 6 0
BBX 6 13 0 -2
BITMAP
00
00
70
88
80
80
70
08
08
88
70
00
00
ENDCHAR
STARTCHAR 0x0054
ENCODING 84
SWIDTH 443 0
DWIDTH 6 0
BBX 6 13 0 -2
BITMAP
00
00
F8
20
20
20
20
20
20
20
20
00
00
ENDCHAR
STARTCHAR 0x0055
ENCODING 85
SWIDTH 443 0
DWIDTH 6 0
BBX 6 13 0 -2
BITMAP
00
00
88
88
88
88
88
88
88
88
70
00
00
ENDCHAR
STARTCHAR 0x0056
ENCODING 86
SWIDTH 443 0
DWIDTH 6 0
BBX 6 13 0 -2
BITMAP
00
00
88
88
88
88
50
50
50
20
20
00
00
ENDCHAR
STARTCHAR 0x0057
ENCODING 87
SWIDTH 443 0
DWIDTH 6 0
BBX 6 13 0 -2
BITMAP
00
00
A8
A8
A8
A8
A8
A8
50
50
50
00
00
ENDCHAR
STARTCHAR 0x0058
ENCODING 88
SWIDTH 443 0
DWIDTH 6 0
BBX 6 13 0 -2
BITMAP
00
00
88
88
50
50
20
50
50
88
88
00
00
ENDCHAR
STARTCHAR 0x0059
ENCODING 89
SWIDTH 443 0
DWIDTH 6 0
BBX 6 13 0 -2
BITMAP
00
00
88
88
50
50
20
20
20
20
20
00
00
ENDCHAR
STARTCHAR 0x005A
ENCODING 90
SWIDTH 443 0
DWIDTH 6 0
BBX 6 13 0 -2
BITMAP
00
00
F8
08
10
10
20
40
40
80
F8
00
00
ENDCHAR
STARTCHAR 0x005B
ENCODING 91
SWIDTH 443 0
DWIDTH 6 0
BBX 6 13 0 -2
BITMAP
00
70
40
40
40
40
40
40
40
40
40
70
00
ENDCHAR
STARTCHAR 0x005C
ENCODING 92
SWIDTH 443 0
DWIDTH 6 0
BBX 6 13 0 -2
BITMAP
00
00
80
80
40
40
20
20
10
10
08
08
00
ENDCHAR
STARTCHAR 0x005D
ENCODING 93
SWIDTH 443 0
DWIDTH 6 0
BBX 6 13 0 -2
BITMAP
00
70
10
10
10
10
10
10
10
10
10
70
00
ENDCHAR
STARTCHAR 0x005E
ENCODING 94
SWIDTH 443 0
DWIDTH 6 0
BBX 6 13 0 -2
BITMAP
00
20
50
88
00
00
00
00
00
00
00
00
00
ENDCHAR
STARTCHAR 0x005F
ENCODING 95
SWIDTH 443 0
DWIDTH 6 0
BBX 6 13 0 -2
BITMAP
00
00
00
00
00
00
00
00
00
00
00
F8
00
ENDCHAR
STARTCHAR 0x0060
ENCODING 96
SWIDTH 443 0
DWIDTH 6 0
BBX 6 13 0 -2
BITMAP
00
40
40
20
20
00
00
00
00
00
00
00
00
ENDCHAR
STARTCHAR 0x0061
ENCODING 97
SWIDTH 443 0
DWIDTH 6 0
BBX 6 13 0 -2
BITMAP
00
00
00
00
00
70
08
78
88
88
78
00
00
ENDCHAR
STARTCHAR 0x0062
ENCODING 98
SWIDTH 443 0
DWIDTH 6 0
BBX 6 13 0 -2
BITMAP
00
00
80
80
80
F0
88
88
88
88
F0
00
00
ENDCHAR
STARTCHAR 0x0063
ENCODING 99
SWIDTH 443 0
DWIDTH 6 0
BBX 6 13 0 -2
BITMAP
00
00
00
00
00
70
88
80
80
88
70
00
00
ENDCHAR
STARTCHAR 0x0064
ENCODING 100
SWIDTH 443 0
DWIDTH 6 0
BBX 6 13 0 -2
BITMAP
00
00
08
08
08
78
88
88
88
88
78
00
00
ENDCHAR
STARTCHAR 0x0065
ENCODING 101
SWIDTH 443 0
DWIDTH 6 0
BBX 6 13 0 -2
BITMAP
00
00
00
00
00
70
88
F8
80
88
70
00
00
ENDCHAR
STARTCHAR 0x0066
ENCODING 102
SWIDTH 443 0
DWIDTH 6 0
BBX 6 13 0 -2
BITMAP
00
00
18
20
20
20
F8
20
20
20
20
00
00
ENDCHAR
STARTCHAR 0x0067
ENCODING 103
SWIDTH 443 0
DWIDTH 6 0
BBX 6 13 0 -2
BITMAP
00
00
00
00
00
78
88
88
88
78
08
88
70
ENDCHAR
STARTCHAR 0x0068
ENCODING 104
SWIDTH 443 0
DWIDTH 6 0
BBX 6 13 0 -2
BITMAP
00
00
80
80
80
B0
C8
88
88
88
88
00
00
ENDCHAR
STARTCHAR 0x0069
ENCODING 105
SWIDTH 443 0
DWIDTH 6 0
BBX 6 13 0 -2
BITMAP
00
20
00
00
00
60
20
20
20
20
70
00
00
ENDCHAR
STARTCHAR 0x006A
ENCODING 106
SWIDTH 443 0
DWIDTH 6 0
BBX 6 13 0 -2
BITMAP
00
10
00
00
00
30
10
10
10
10
10
10
E0
ENDCHAR
STARTCHAR 0x006B
ENCODING 107
SWIDTH 443 0
DWIDTH 6 0
BBX 6 13 0 -2
BITMAP
00
00
80
80
80
90
A0
C0
A0
90
88
00
00
ENDCHAR
STARTCHAR 0x006C
ENCODING 108
SWIDTH 443 0
DWIDTH 6 0
BBX 6 13 0 -2
BITMAP
00
00
60
20
20
20
20
20
20
20
30
00
00
ENDCHAR
STARTCHAR 0x006D
ENCODING 109
SWIDTH 443 0
DWIDTH 6 0
BBX 6 13 0 -2
BITMAP
00
00
00
00
00
F0
A8
A8
A8
A8
A8
00
00
ENDCHAR
STARTCHAR 0x006E
ENCODING 110
SWIDTH 443 0
DWIDTH 6 0
BBX 6 13 0 -2
BITMAP
00
00
00
00
00
B0
C8
88
88
88
88
00
00
ENDCHAR
STARTCHAR 0x006F
ENCODING 111
SWIDTH 443 0
DWIDTH 6 0
BBX 6 13 0 -2
BITMAP
00
00
00
00
00
70
88
88
88
88
70
00
00
ENDCHAR
STARTCHAR 0x0070
ENCODING 112
SWIDTH 443 0
DWIDTH 6 0
BBX 6 13 0 -2
BITMAP
00
00
00
00
00
F0
88
88
88
F0
80
80
80
ENDCHAR
STARTCHAR 0x0071
ENCODING 113
SWIDTH 443 0
DWIDTH 6 0
BBX 6 13 0 -2
BITMAP
00
00
00
00
00
78
88
88
88
78
08
08
08
ENDCHAR
STARTCHAR 0x0072
ENCODING 114
SWIDTH 443 0
DWIDTH 6 0
BBX 6 13 0 -2
BITMAP
00
00
00
00
00
B0
C8
80
80
80
80
00
00
ENDCHAR
STARTCHAR 0x0073
ENCODING 115
SWIDTH 443 0
DWIDTH 6 0
BBX 6 13 0 -2
BITMAP
00
00
00
00
00
70
88
70
08
88
70
00
00
ENDCHAR
STARTCHAR 0x0074
ENCODING 116
SWIDTH 443 0
DWIDTH 6 0
BBX 6 13 0 -2
BITMAP
00
00
40
40
40
F0
40
40
40
48
30
00
00
ENDCHAR
STARTCHAR 0x0075
ENCODING 117
SWIDTH 443 0
DWIDTH 6 0
BBX 6 13 0 -2
BITMAP
00
00
00
00
00
88
88
88
88
98
68
00
00
ENDCHAR
STARTCHAR 0x0076
ENCODING 118
SWIDTH 443 0
DWIDTH 6 0
BBX 6 13 0 -2
BITMAP
00
00
00
00
00
88
88
50
50
20
20
00
00
ENDCHAR
STARTCHAR 0x0077
ENCODING 119
SWIDTH 443 0
DWIDTH 6 0
BBX 6 13 0 -2
BITMAP
00
00
00
00
00
A8
A8
A8
A8
50
50
00
00
ENDCHAR
STARTCHAR 0x0078
ENCODING 120
SWIDTH 443 0
DWIDTH 6 0
BBX 6 13 0 -2
BITMAP
00
00
00
00
00
88
50
20
20
50
88
00
00
ENDCHAR
STARTCHAR 0x0079
ENCODING 121
SWIDTH 443 0
DWIDTH 6 0
BBX 6 13 0 -2
BITMAP
00
00
00
00
00
88
88
88
88
78
08
88
70
ENDCHAR
STARTCHAR 0x007A
ENCODING 122
SWIDTH 443 0
DWIDTH 6 0
BBX 6 13 0 -2
BITMAP
00
00
00
00
00
F8
10
20
40
80
F8
00
00
ENDCHAR
STARTCHAR 0x007B
ENCODING 123
SWIDTH 443 0
DWIDTH 6 0
BBX 6 13 0 -2
BITMAP
00
18
20
20
20
20
C0
20
20
20
20
18
00
ENDCHAR
STARTCHAR 0x007C
ENCODING 124
SWIDTH 443 0
DWIDTH 6 0
BBX 6 13 0 -2
BITMAP
00
20
20
20
20
20
20
20
20
20
20
20
00
ENDCHAR
STARTCHAR 0x007D
ENCODING 125
SWIDTH 443 0
DWIDTH 6 0
BBX 6 13 0 -2
BITMAP
00
C0
20
20
20
20
18
20
20
20
20
C0
00
ENDCHAR
STARTCHAR 0x007E
ENCODING 126
SWIDTH 443 0
DWIDTH 6 0
BBX 6 13 0 -2
BITMAP
00
00
68
B0
00
00
00
00
00
00
00
00
00
ENDCHAR
ENDFONT
