STARTFONT 2.1
FONT -underworld-title-24
SIZE 24 75 75
FONTBOUNDINGBOX 24 28 0 -4
STARTPROPERTIES 2
FONT_ASCENT 24
FONT_DESCENT 4
ENDPROPERTIES
CHARS 21
STARTCHAR 0x244E
ENCODING 12398
SWIDTH 886 0
DWIDTH 24 0
BBX 24 26 0 -4
BITMAP
00000000
00000000
00000000
00000000
00000000
00000000
00FFC000
00FFC000
03303000
03303000
0C300C00
0C300C00
30300C00
30300C00
30C00C00
30C00C00
30C00C00
30C00C00
0F003000
0F003000
0003C000
0003C000
00000000
00000000
00000000
00000000
ENDCHAR
STARTCHAR 0x2456
ENCODING 12406
SWIDTH 886 0
DWIDTH 24 0
BBX 24 26 0 -4
BITMAP
00000000
00000000
00003000
00003000
03FF0C00
03FF0C00
0003C000
0003C000
000C3000
000C3000
00300000
00300000
0C300000
0C300000
0C303000
0C303000
0C0C3000
0C0C3000
300C0C00
300C0C00
300C0C00
300C0C00
00F00000
00F00000
00000000
00000000
ENDCHAR
STARTCHAR 0x2472
ENCODING 12434
SWIDTH 886 0
DWIDTH 24 0
BBX 24 26 0 -4
BITMAP
00000000
00000000
00C00000
00C00000
00C00000
00C00000
3FFFC000
3FFFC000
03000000
03000000
03F00000
03F00000
0C0CF000
0C0CF000
303F0000
303F0000
30CC0000
30CC0000
030C0000
030C0000
03000000
03000000
00FFC000
00FFC000
00000000
00000000
ENDCHAR
STARTCHAR 0x3326
ENCODING 30028
SWIDTH 886 0
DWIDTH 24 0
BBX 24 26 0 -4
BITMAP
00000000
00000000
3FFFF000
3FFFF000
30303000
30303000
3FFFF000
3FFFF000
30303000
30303000
30303000
30303000
3FFFF000
3FFFF000
03030000
03030000
0F03C000
0F03C000
F3033000
F3033000
03030C00
03030C00
3C030000
3C030000
00000000
00000000
ENDCHAR
STARTCHAR 0x3649
ENCODING 23616
SWIDTH 886 0
DWIDTH 24 0
BBX 24 26 0 -4
BITMAP
00000000
00000000
3FFFF000
3FFFF000
30003000
30003000
3FFFF000
3FFFF000
30000000
30000000
3FFFFC00
3FFFFC00
30000C00
30000C00
33FF0C00
33FF0C00
33030C00
33030C00
33030C00
33030C00
C3FF0C00
C3FF0C00
C000F000
C000F000
00000000
00000000
ENDCHAR
STARTCHAR 0x3954
ENCODING 34892
SWIDTH 886 0
DWIDTH 24 0
BBX 24 26 0 -4
BITMAP
00000000
00000000
0C3FF000
0C3FF000
30000000
30000000
C0000000
C0000000
00000000
00000000
0CFFFC00
0CFFFC00
3000C000
3000C000
F000C000
F000C000
3000C000
3000C000
3000C000
3000C000
3000C000
3000C000
300FC000
300FC000
00000000
00000000
ENDCHAR
STARTCHAR 0x3C39
ENCODING 22519
SWIDTH 886 0
DWIDTH 24 0
BBX 24 26 0 -4
BITMAP
0C030000
0C030000
0C030000
0C030000
FFC30000
FFC30000
0C3FF000
0C3FF000
FFC33000
FFC33000
33333000
33333000
330F3000
330F3000
FFC33000
FFC33000
0C0CF000
0C0CF000
FFCC3000
FFCC3000
0C300C00
0C300C00
0C300C00
0C300C00
00000000
00000000
ENDCHAR
STARTCHAR 0x412A
ENCODING 36984
SWIDTH 886 0
DWIDTH 24 0
BBX 24 26 0 -4
BITMAP
00000000
00000000
03FCFC00
03FCFC00
300C0C00
300C0C00
0CFCFC00
0CFCFC00
00C0C000
00C0C000
00FFFC00
00FFFC00
FC0CC000
FC0CC000
0CFFFC00
0CFFFC00
0C0CC000
0C0CC000
0CF03C00
0CF03C00
33000000
33000000
C0FFFC00
C0FFFC00
00000000
00000000
ENDCHAR
STARTCHAR 0x4540
ENCODING 28857
SWIDTH 886 0
DWIDTH 24 0
BBX 24 26 0 -4
BITMAP
00300000
00300000
00300000
00300000
003FF000
003FF000
00300000
00300000
00300000
00300000
0FFFC000
0FFFC000
0C00C000
0C00C000
0C00C000
0C00C000
0FFFC000
0FFFC000
00000000
00000000
330C3000
330C3000
C0C30C00
C0C30C00
00000000
00000000
ENDCHAR
STARTCHAR 0x4C3D
ENCODING 20901
SWIDTH 886 0
DWIDTH 24 0
BBX 24 26 0 -4
BITMAP
00000000
00000000
FFFFFC00
FFFFFC00
C0000C00
C0000C00
CFFFCC00
CFFFCC00
0C00C000
0C00C000
0FFFC000
0FFFC000
0C00C000
0C00C000
0FFFC000
0FFFC000
00300000
00300000
FFFFFC00
FFFFFC00
0C00C000
0C00C000
F0003C00
F0003C00
00000000
00000000
ENDCHAR
STARTCHAR 0x0020
ENCODING 32
SWIDTH 443 0
DWIDTH 12 0
BBX 12 26 0 -4
BITMAP
0000
0000
0000
0000
0000
0000
0000
0000
0000
0000
0000
0000
0000
0000
0000
0000
0000
0000
0000
0000
0000
0000
0000
0000
0000
0000
ENDCHAR
STARTCHAR 0x0030
ENCODING 48
SWIDTH 443 0
DWIDTH 12 0
BBX 12 26 0 -4
BITMAP
0000
0000
0000
0000
3F00
3F00
C0C0
C0C0
C0C0
C0C0
C3C0
C3C0
CCC0
CCC0
F0C0
F0C0
C0C0
C0C0
C0C0
C0C0
3F00
3F00
0000
0000
0000
0000
ENDCHAR
STARTCHAR 0x0031
ENCODING 49
SWIDTH 443 0
DWIDTH 12 0
BBX 12 26 0 -4
BITMAP
0000
0000
0000
0000
0C00
0C00
3C00
3C00
CC00
CC00
0C00
0C00
0C00
0C00
0C00
0C00
0C00
0C00
0C00
0C00
0C00
0C00
0000
0000
0000
0000
ENDCHAR
STARTCHAR 0x0032
ENCODING 50
SWIDTH 443 0
DWIDTH 12 0
BBX 12 26 0 -4
BITMAP
0000
0000
0000
0000
3F00
3F00
C0C0
C0C0
C0C0
C0C0
00C0
00C0
0300
0300
0C00
0C00
3000
3000
C000
C000
FFC0
FFC0
0000
0000
0000
0000
ENDCHAR
STARTCHAR 0x0033
ENCODING 51
SWIDTH 443 0
DWIDTH 12 0
BBX 12 26 0 -4
BITMAP
0000
0000
0000
0000
FFC0
FFC0
00C0
00C0
0300
0300
0C00
0C00
3F00
3F00
00C0
00C0
00C0
00C0
C0C0
C0C0
3F00
3F00
0000
0000
0000
0000
ENDCHAR
STARTCHAR 0x0034
ENCODING 52
SWIDTH 443 0
DWIDTH 12 0
BBX 12 26 0 -4
BITMAP
0000
0000
0000
0000
0F00
0F00
0F00
0F00
3300
3300
3300
3300
C300
C300
C300
C300
FFC0
FFC0
0300
0300
0300
0300
0000
0000
0000
0000
ENDCHAR
STARTCHAR 0x0035
ENCODING 53
SWIDTH 443 0
DWIDTH 12 0
BBX 12 26 0 -4
BITMAP
0000
0000
0000
0000
FFC0
FFC0
C000
C000
C000
C000
FF00
FF00
00C0
00C0
00C0
00C0
C0C0
C0C0
C0C0
C0C0
3F00
3F00
0000
0000
0000
0000
ENDCHAR
STARTCHAR 0x0036
ENCODING 54
SWIDTH 443 0
DWIDTH 12 0
BBX 12 26 0 -4
BITMAP
0000
0000
0000
0000
0F00
0F00
3000
3000
C000
C000
FF00
FF00
C0C0
C0C0
C0C0
C0C0
C0C0
C0C0
C0C0
C0C0
3F00
3F00
0000
0000
0000
0000
ENDCHAR
STARTCHAR 0x0037
ENCODING 55
SWIDTH 443 0
DWIDTH 12 0
BBX 12 26 0 -4
BITMAP
0000
0000
0000
0000
FFC0
FFC0
00C0
00C0
0300
0300
0300
0300
0C00
0C00
0C00
0C00
3000
3000
3000
3000
3000
3000
0000
0000
0000
0000
ENDCHAR
STARTCHAR 0x0038
ENCODING 56
SWIDTH 443 0
DWIDTH 12 0
BBX 12 26 0 -4
BITMAP
0000
0000
0000
0000
3F00
3F00
C0C0
C0C0
C0C0
C0C0
3300
3300
0C00
0C00
3300
3300
C0C0
C0C0
C0C0
C0C0
3F00
3F00
0000
0000
0000
0000
ENDCHAR
STARTCHAR 0x0039
ENCODING 57
SWIDTH 443 0
DWIDTH 12 0
BBX 12 26 0 -4
BITMAP
0000
0000
0000
0000
3F00
3F00
C0C0
C0C0
C0C0
C0C0
C0C0
C0C0
C0C0
C0C0
3FC0
3FC0
00C0
00C0
0300
0300
3C00
3C00
0000
0000
0000
0000
ENDCHAR
ENDFONT
